<svg width="122" height="40" viewBox="0 0 122 40" fill="none" xmlns="http://www.w3.org/2000/svg">
<path d="M122 34.5928C122 37.5788 119.587 39.9977 116.607 39.9977H5.3925C2.41563 40 0 37.5788 0 34.5928V5.4049C0 2.42119 2.41563 0 5.3925 0H116.607C119.584 0 122 2.42119 122 5.4049V34.5928Z" fill="black"/>
<path d="M31.8147 26.4385C31.1693 27.873 30.8606 28.5128 30.0281 29.7808C28.8683 31.5504 27.2313 33.756 25.2062 33.7748C23.4056 33.7912 22.9426 32.6005 20.4989 32.6146C18.0552 32.6286 17.5454 33.7958 15.7448 33.7794C13.7197 33.7607 12.1693 31.7708 11.0094 29.9988C7.76362 25.0486 7.42688 19.2383 9.42627 16.1514C10.8481 13.9576 13.0906 12.6732 15.1999 12.6732C17.3466 12.6732 18.6983 13.8545 20.4732 13.8545C22.1966 13.8545 23.2466 12.6732 25.7277 12.6732C27.6055 12.6732 29.5932 13.6974 31.0103 15.4694C26.3684 18.0171 27.1238 24.6619 31.8147 26.4385Z" fill="white"/>
<path d="M23.8452 10.6926C24.7479 9.53241 25.4331 7.89172 25.1828 6.21822C23.7096 6.319 21.9862 7.25888 20.9783 8.48471C20.0639 9.59804 19.311 11.2458 19.6033 12.8489C21.2145 12.9005 22.8795 11.9372 23.8452 10.6926Z" fill="white"/>
<path d="M41.6997 16.077L37.0508 29.7885H39.1788L40.5655 25.5789H45.0647L46.4912 29.7885H48.6776L44.0101 16.077H41.6997ZM42.8011 18.3318C42.9577 18.9435 43.1285 19.5787 43.3459 20.2654L44.5993 23.9007H41.0355L42.2702 20.242C42.4573 19.649 42.635 19.0091 42.8011 18.3318Z" fill="white"/>
<path d="M54.6944 19.632C53.2843 19.632 52.1549 20.1781 51.4042 21.2141L51.3224 19.85H49.4282L49.4399 20.0234C49.496 20.8719 49.5194 21.8094 49.5194 23.1501V33.7185H51.589V28.7871C52.232 29.5582 53.2563 30.0059 54.4185 30.0059C55.6275 30.0059 56.7429 29.5301 57.5544 28.6699C58.4617 27.7089 58.9388 26.3284 58.9388 24.6783C58.9388 23.2204 58.5225 21.9595 57.7368 21.0336C56.9674 20.1313 55.8871 19.632 54.6944 19.632ZM54.18 21.3501C56.025 21.3501 56.8505 23.0634 56.8505 24.7603C56.8505 26.9495 55.7959 28.3113 54.1005 28.3113C52.9429 28.3113 51.9421 27.5214 51.6615 26.387C51.6123 26.2112 51.589 25.9791 51.589 25.7143V24.0455C51.589 23.8955 51.6217 23.7103 51.6544 23.5345C51.6638 23.4783 51.6755 23.422 51.6848 23.3658C51.9935 22.1774 53.0178 21.3501 54.18 21.3501Z" fill="white"/>
<path d="M65.3532 19.632C63.9431 19.632 62.8137 20.1781 62.063 21.2141L61.9812 19.85H60.0894L60.0987 20.0234C60.1548 20.8743 60.1782 21.8094 60.1782 23.1501V33.7185H62.2478V28.7871C62.8908 29.5582 63.9151 30.0059 65.0773 30.0059C66.2863 30.0059 67.4017 29.5301 68.2155 28.6699C69.1205 27.7089 69.5999 26.3284 69.5999 24.6783C69.5999 23.2204 69.1837 21.9595 68.3956 21.0336C67.6262 20.1313 66.5459 19.632 65.3532 19.632ZM64.8388 21.3501C66.6838 21.3501 67.5093 23.0634 67.5093 24.7603C67.5093 26.9495 66.4547 28.3113 64.7593 28.3113C63.6017 28.3113 62.5985 27.5214 62.3203 26.387C62.2711 26.2112 62.2478 25.9791 62.2478 25.7143V24.0455C62.2478 23.8931 62.2805 23.7103 62.3132 23.5322C62.3226 23.4759 62.3343 23.4197 62.3436 23.3658C62.6523 22.1774 63.6766 21.3501 64.8388 21.3501Z" fill="white"/>
<path d="M78.7081 21.8868C76.7766 21.1368 76.1569 20.5485 76.1569 19.4586C76.1569 18.5421 76.8841 17.6163 78.5094 17.6163C79.8493 17.6163 80.7075 18.0827 80.939 18.2281L81.1144 18.3359L81.699 16.6038L81.5845 16.5358C81.2384 16.3319 80.2492 15.8584 78.5702 15.8584C75.93 15.8584 74.0873 17.4194 74.0873 19.6555C74.0873 21.4579 75.2425 22.7189 77.7213 23.6212C79.4775 24.2799 80.1323 24.9525 80.1323 26.108C80.1323 27.4159 79.1244 28.2269 77.5015 28.2269C76.4445 28.2269 75.3571 27.9175 74.5176 27.3784L74.3376 27.2636L73.781 29.0355L73.8839 29.1035C74.6649 29.6262 76.1358 30.0059 77.3822 30.0059C80.939 30.0059 82.2018 27.8308 82.2018 25.9698C82.1995 24.0525 81.1869 22.8689 78.7081 21.8868Z" fill="white"/>
<path d="M85.9245 17.4874L83.8947 18.1273V19.85H82.4075V21.5071H83.8947V26.5862C83.8947 27.8144 84.1286 28.6746 84.6103 29.2183C85.0733 29.7269 85.7842 30.0059 86.612 30.0059C87.3954 30.0059 87.9496 29.8512 88.2115 29.7574L88.3285 29.7152L88.2302 28.0534L88.0315 28.1144C87.7696 28.1941 87.5006 28.2269 87.068 28.2269C86.2659 28.2269 85.9245 27.7183 85.9245 26.5252V21.5094H88.422V19.8523H85.9245V17.4874Z" fill="white"/>
<path d="M93.5504 19.632C90.6553 19.632 88.6326 21.7977 88.6326 24.8986C88.6326 27.9058 90.5899 30.0082 93.3937 30.0082H93.4124C95.7812 30.0082 98.3302 28.3535 98.3302 24.7205C98.3302 23.2439 97.8742 21.9759 97.0113 21.05C96.1437 20.1242 94.9464 19.632 93.5504 19.632ZM93.4919 21.2704C95.3533 21.2704 96.2022 23.0892 96.2022 24.7814C96.2022 26.8604 95.0446 28.3699 93.4521 28.3699H93.4311C91.862 28.3699 90.7208 26.8862 90.7208 24.84C90.7232 23.0634 91.579 21.2704 93.4919 21.2704Z" fill="white"/>
<path d="M104.67 19.7281L104.546 19.6976C104.363 19.6531 104.214 19.632 104.031 19.632C102.949 19.632 101.976 20.2719 101.436 21.3032L101.375 19.8523H99.5181L99.5298 20.0258C99.5859 20.8461 99.6069 21.7696 99.6069 23.0142L99.5882 29.7926H101.658V24.5049C101.658 24.2166 101.676 23.9447 101.714 23.7009C101.948 22.4306 102.801 21.6102 103.891 21.6102C104.104 21.6102 104.27 21.6266 104.448 21.6454L104.67 21.6688V19.7281Z" fill="white"/>
<path d="M109.323 19.6133C106.569 19.6133 104.644 21.8188 104.644 24.9807C104.644 28.023 106.559 29.9894 109.522 29.9894C111.079 29.9894 112.165 29.6472 112.798 29.359L112.922 29.3027L112.525 27.7558L112.352 27.8261C111.788 28.0558 111.037 28.2902 109.758 28.2902C108.858 28.2902 106.786 27.9925 106.657 25.283L113.338 25.3041L113.366 25.1705C113.409 24.9596 113.43 24.676 113.43 24.3056C113.43 22.1399 112.354 19.6133 109.323 19.6133ZM109.185 21.1907C109.817 21.1907 110.326 21.3852 110.705 21.7719C111.302 22.379 111.405 23.2743 111.419 23.7033H106.697C106.891 22.5056 107.637 21.1907 109.185 21.1907Z" fill="white"/>
<path d="M37.0507 6.71117C37.6283 6.63383 38.2994 6.57758 39.036 6.57758C40.3713 6.57758 41.3207 6.84712 41.9498 7.37683C42.5999 7.90653 42.974 8.66594 42.974 9.71598C42.974 10.7754 42.5999 11.6403 41.9381 12.238C41.2552 12.845 40.1445 13.1731 38.7461 13.1731C38.0726 13.1731 37.5301 13.1544 37.0483 13.0958V6.71117H37.0507ZM37.9907 12.4606C38.2246 12.4981 38.566 12.4981 38.9308 12.4981C40.9162 12.5075 41.9942 11.4973 41.9942 9.74411C42.0059 8.19483 41.0448 7.24088 39.0805 7.24088C38.6011 7.24088 38.2363 7.28073 37.9907 7.32761V12.4606Z" fill="white"/>
<path d="M46.3041 13.2193C44.915 13.2193 43.8276 12.2958 43.8276 10.8215C43.8276 9.2605 44.9688 8.34641 46.3883 8.34641C47.8732 8.34641 48.8764 9.3191 48.8764 10.7348C48.8764 12.4669 47.5411 13.2193 46.3158 13.2193H46.3041ZM46.3368 12.5841C47.2324 12.5841 47.9059 11.8223 47.9059 10.7652C47.9059 9.97538 47.4686 8.98393 46.3579 8.98393C45.2588 8.98393 44.7771 9.9074 44.7771 10.7934C44.7771 11.8129 45.4178 12.5841 46.3251 12.5841H46.3368Z" fill="white"/>
<path d="M50.3636 8.45422L51.0581 10.8145C51.196 11.3348 51.3364 11.8247 51.4322 12.3075H51.465C51.5819 11.8364 51.7526 11.3348 51.9233 10.8238L52.7675 8.45422H53.5579L54.3577 10.784C54.5494 11.3325 54.6991 11.834 54.816 12.3052H54.8487C54.9353 11.834 55.0732 11.3418 55.2439 10.7934L55.9805 8.45422H56.9089L55.2439 13.1138H54.3904L53.6 10.8895C53.4176 10.3598 53.2679 9.89803 53.1417 9.34957H53.1206C52.992 9.90741 52.833 10.3996 52.6506 10.8989L51.8181 13.1138H50.9645L49.4048 8.45422H50.3636Z" fill="white"/>
<path d="M57.8468 9.7152C57.8468 9.22299 57.8351 8.8386 57.8047 8.45421H58.6372L58.691 9.21596H58.712C58.9692 8.78235 59.5656 8.34874 60.4191 8.34874C61.1347 8.34874 62.2454 8.73313 62.2454 10.3316V13.1138H61.3077V10.4277C61.3077 9.6777 60.9967 9.04252 60.1128 9.04252C59.5048 9.04252 59.023 9.43628 58.8523 9.90974C58.8102 10.0152 58.7892 10.1699 58.7892 10.3035V13.1161H57.8491V9.7152H57.8468Z" fill="white"/>
<path d="M63.77 6.27679H64.7107V13.1138H63.77V6.27679Z" fill="white"/>
<path d="M68.3722 13.2193C66.9855 13.2193 65.8958 12.2958 65.8958 10.8215C65.8958 9.2605 67.0369 8.34641 68.4587 8.34641C69.9413 8.34641 70.9445 9.3191 70.9445 10.7348C70.9445 12.4669 69.6092 13.2193 68.3815 13.2193H68.3722ZM68.4049 12.5841C69.3006 12.5841 69.974 11.8223 69.974 10.7652C69.974 9.97538 69.5367 8.98393 68.426 8.98393C67.3269 8.98393 66.8452 9.9074 66.8452 10.7934C66.8452 11.8129 67.4859 12.5841 68.3932 12.5841H68.4049Z" fill="white"/>
<path d="M75.771 11.9958C75.771 12.3989 75.7921 12.795 75.8459 13.1114H75.0017L74.9152 12.5255H74.8848C74.6065 12.8911 74.0406 13.2192 73.304 13.2192C72.2587 13.2192 71.7231 12.5559 71.7231 11.8809C71.7231 10.7535 72.8339 10.1371 74.8286 10.1488V10.0527C74.8286 9.66832 74.7117 8.96517 73.6547 8.97455C73.1636 8.97455 72.6609 9.09877 72.2984 9.32143L72.0856 8.75422C72.5136 8.51281 73.1426 8.34874 73.7927 8.34874C75.3828 8.34874 75.7664 9.32143 75.7664 10.2543V11.9958H75.771ZM74.852 10.7348C73.8278 10.716 72.6632 10.8801 72.6632 11.7848C72.6632 12.3426 73.0678 12.5934 73.5378 12.5934C74.2206 12.5934 74.6579 12.209 74.8076 11.8129C74.8403 11.7262 74.8497 11.6301 74.8497 11.5434V10.7348H74.852Z" fill="white"/>
<path d="M81.7363 6.27679V11.909C81.7363 12.3239 81.748 12.795 81.7784 13.1138H80.9342L80.8922 12.3052H80.8711C80.5835 12.8255 79.9638 13.2193 79.1196 13.2193C77.8708 13.2193 76.898 12.2653 76.898 10.8496C76.8864 9.28863 77.9667 8.34641 79.2155 8.34641C80.0176 8.34641 80.5507 8.68392 80.7752 9.04956H80.7963V6.27679H81.7363ZM80.7986 10.3504C80.7986 10.2355 80.7893 10.0996 80.7565 9.98475C80.6185 9.45504 80.1064 9.01206 79.4002 9.01206C78.4297 9.01206 77.8521 9.78318 77.8521 10.8028C77.8521 11.7567 78.376 12.5349 79.3792 12.5349C80.0082 12.5349 80.5858 12.1505 80.7565 11.5247C80.7893 11.4098 80.7986 11.2926 80.7986 11.159V10.3504Z" fill="white"/>
<path d="M87.662 13.2193C86.2753 13.2193 85.1855 12.2958 85.1855 10.8215C85.1855 9.2605 86.3291 8.34641 87.7485 8.34641C89.2334 8.34641 90.2366 9.3191 90.2366 10.7348C90.2366 12.4669 88.9014 13.2193 87.676 13.2193H87.662ZM87.6947 12.5841C88.5904 12.5841 89.2638 11.8223 89.2638 10.7652C89.2638 9.97538 88.8265 8.98393 87.7158 8.98393C86.6167 8.98393 86.135 9.9074 86.135 10.7934C86.135 11.8129 86.7757 12.5841 87.683 12.5841H87.6947Z" fill="white"/>
<path d="M91.42 9.7152C91.42 9.22299 91.4083 8.8386 91.3779 8.45421H92.2104L92.2642 9.21596H92.2853C92.5425 8.78235 93.1388 8.34874 93.9923 8.34874C94.7079 8.34874 95.8187 8.73313 95.8187 10.3316V13.1138H94.8786V10.4277C94.8786 9.6777 94.5699 9.04252 93.6837 9.04252C93.0757 9.04252 92.5939 9.43628 92.4232 9.90974C92.3811 10.0152 92.3601 10.1699 92.3601 10.3035V13.1161H91.42V9.7152Z" fill="white"/>
<path d="M100.739 7.33621V8.45188H102.083V9.09644H100.739V11.609C100.739 12.1856 100.921 12.5138 101.443 12.5138C101.698 12.5138 101.847 12.495 101.988 12.4552L102.03 13.0997C101.847 13.1583 101.56 13.2146 101.197 13.2146C100.76 13.2146 100.407 13.0786 100.182 12.8583C99.925 12.5981 99.8198 12.1833 99.8198 11.6348V9.09878H99.02V8.45422H99.8198V7.59638L100.739 7.33621Z" fill="white"/>
<path d="M103.14 6.27679H104.08V9.1855H104.101C104.251 8.94409 104.485 8.72376 104.775 8.58782C105.053 8.43313 105.383 8.34641 105.736 8.34641C106.428 8.34641 107.539 8.7308 107.539 10.3387V13.1114H106.599V10.4371C106.599 9.67536 106.29 9.04956 105.404 9.04956C104.796 9.04956 104.326 9.43395 104.143 9.89803C104.09 10.0129 104.078 10.1394 104.078 10.3035V13.1161H103.138V6.27679H103.14Z" fill="white"/>
<path d="M109.599 10.927C109.62 12.0731 110.422 12.5442 111.36 12.5442C112.033 12.5442 112.45 12.4388 112.791 12.3122L112.962 12.9099C112.63 13.0458 112.055 13.2075 111.231 13.2075C109.651 13.2075 108.689 12.2536 108.689 10.859C108.689 9.44333 109.618 8.33704 111.124 8.33704C112.81 8.33704 113.247 9.67537 113.247 10.5332C113.247 10.7067 113.238 10.8403 113.217 10.9364L109.599 10.927ZM112.344 10.3223C112.354 9.79256 112.099 8.94409 111.051 8.94409C110.09 8.94409 109.686 9.73397 109.611 10.3223H112.344Z" fill="white"/>
</svg>
