<svg width="122" height="40" viewBox="0 0 122 40" fill="none" xmlns="http://www.w3.org/2000/svg">
<path d="M122 34.5945C122 37.5805 119.586 40 116.607 40H5.39302C2.41386 40 0 37.5805 0 34.5945V5.40553C0 2.41946 2.41386 0 5.39302 0H116.607C119.584 0 122 2.41946 122 5.40553V34.5945Z" fill="black"/>
<path d="M9.14966 7.70201V21.2457V34.7895L22.7789 21.2457L9.14966 7.70201Z" fill="url(#paint0_linear)"/>
<path d="M26.4378 17.608L20.9375 14.4235L9.14966 7.60266V7.70068L22.7789 21.2444L26.4378 17.608Z" fill="url(#paint1_linear)"/>
<path d="M9.14966 34.7881V34.8885L20.9375 28.0653L26.4378 24.8832L22.7789 21.2444L9.14966 34.7881Z" fill="url(#paint2_linear)"/>
<path d="M26.4378 17.608L22.7788 21.2444L26.4378 24.8832L32.7252 21.2444L26.4378 17.608Z" fill="url(#paint3_linear)"/>
<path d="M94.9466 26.54C94.4337 26.54 93.9686 26.4443 93.544 26.2555C93.1218 26.0666 92.7664 25.7749 92.4778 25.3828H92.392C92.4492 25.8418 92.4778 26.2794 92.4778 26.6906V29.9325H91.2876V18.5189H92.256L92.4206 19.5972H92.4778C92.7831 19.1668 93.1409 18.8536 93.5464 18.6624C93.9519 18.4711 94.4194 18.3755 94.9442 18.3755C95.9865 18.3755 96.7904 18.7317 97.358 19.4465C97.9257 20.1614 98.2072 21.1631 98.2072 22.4517C98.2072 23.7451 97.9186 24.7517 97.3437 25.4665C96.7689 26.1813 95.9698 26.54 94.9466 26.54ZM94.7748 19.3892C93.971 19.3892 93.3914 19.6115 93.0336 20.0586C92.6758 20.5033 92.4898 21.2133 92.4802 22.1864V22.4517C92.4802 23.5587 92.6639 24.35 93.0336 24.8282C93.4009 25.3039 93.9925 25.543 94.8034 25.543C95.4832 25.543 96.0151 25.2681 96.3992 24.7158C96.7832 24.1659 96.9764 23.4057 96.9764 22.4374C96.9764 21.4548 96.7832 20.7017 96.3992 20.1757C96.0128 19.6498 95.4713 19.3892 94.7748 19.3892Z" fill="#F9F9F9"/>
<path d="M100.964 26.3965H99.7742V15.2125H100.964V26.3965Z" fill="#F9F9F9"/>
<path d="M107.81 26.3965L107.574 25.2752H107.517C107.125 25.7701 106.734 26.1025 106.343 26.277C105.954 26.4515 105.468 26.54 104.883 26.54C104.103 26.54 103.493 26.3391 103.052 25.9351C102.61 25.5334 102.388 24.9597 102.388 24.2185C102.388 22.6287 103.657 21.7943 106.195 21.7178L107.529 21.6747V21.187C107.529 20.5678 107.395 20.1112 107.13 19.8171C106.866 19.523 106.441 19.3748 105.857 19.3748C105.201 19.3748 104.461 19.5756 103.634 19.9797L103.269 19.0664C103.655 18.856 104.08 18.6911 104.542 18.5715C105.003 18.452 105.465 18.3922 105.93 18.3922C106.868 18.3922 107.562 18.6002 108.013 19.0186C108.464 19.4346 108.69 20.104 108.69 21.0245V26.4013H107.81V26.3965ZM105.12 25.555C105.861 25.555 106.441 25.3517 106.866 24.9453C107.288 24.5389 107.5 23.9675 107.5 23.2335V22.5211L106.31 22.5713C105.363 22.6048 104.681 22.753 104.263 23.0136C103.846 23.2742 103.636 23.6806 103.636 24.2329C103.636 24.6632 103.765 24.9931 104.027 25.2179C104.287 25.4426 104.652 25.555 105.12 25.555Z" fill="#F9F9F9"/>
<path d="M109.382 18.5189H110.658L112.38 23.0112C112.757 24.0368 112.993 24.778 113.084 25.2322H113.141C113.203 24.9883 113.334 24.57 113.532 23.9771C113.73 23.3841 114.379 21.5672 115.479 18.5189H116.755L113.377 27.4891C113.043 28.3761 112.652 29.0048 112.204 29.3754C111.758 29.746 111.209 29.9325 110.558 29.9325C110.195 29.9325 109.835 29.8918 109.482 29.8105V28.8542C109.745 28.9116 110.04 28.9403 110.365 28.9403C111.183 28.9403 111.765 28.4813 112.116 27.5608L112.552 26.4395L109.382 18.5189Z" fill="#F9F9F9"/>
<path d="M72.8951 19.2505C73.272 19.5637 74.0615 20.2235 74.0615 21.4763C74.0615 22.6956 73.3722 23.2718 72.6805 23.8169C72.4658 24.0296 72.2201 24.2615 72.2201 24.6249C72.2201 24.9859 72.4658 25.1844 72.6471 25.3326L73.2386 25.794C73.9613 26.4037 74.6197 26.9655 74.6197 28.1011C74.6197 29.6503 73.1241 31.2139 70.2976 31.2139C67.9124 31.2139 66.7627 30.0783 66.7627 28.8566C66.7627 28.2637 67.0585 27.4245 68.0293 26.846C69.0478 26.2196 70.4288 26.1383 71.1682 26.0881C70.9369 25.7916 70.6745 25.4784 70.6745 24.9692C70.6745 24.6895 70.758 24.5245 70.8391 24.3261C70.6578 24.3428 70.4765 24.3596 70.3119 24.3596C68.5707 24.3596 67.5832 23.0566 67.5832 21.7728C67.5832 21.0149 67.9291 20.1733 68.6351 19.5637C69.5725 18.7891 70.6912 18.6576 71.5785 18.6576H74.9632L73.9113 19.2505H72.8951ZM71.7264 26.5662C71.5952 26.5495 71.5117 26.5495 71.3495 26.5495C71.2016 26.5495 70.3119 26.583 69.6226 26.8149C69.26 26.9464 68.2081 27.3409 68.2081 28.5123C68.2081 29.6814 69.3435 30.523 71.1014 30.523C72.6781 30.523 73.5177 29.7627 73.5177 28.7418C73.5201 27.9003 72.9762 27.458 71.7264 26.5662ZM72.2034 23.4367C72.5803 23.0566 72.6137 22.5306 72.6137 22.2342C72.6137 21.0483 71.9077 19.2027 70.5433 19.2027C70.1163 19.2027 69.656 19.4155 69.3912 19.7478C69.1122 20.0944 69.0287 20.5391 69.0287 20.9671C69.0287 22.0716 69.6703 23.9005 71.0847 23.9005C71.4974 23.8981 71.9411 23.6997 72.2034 23.4367Z" fill="#F9F9F9"/>
<path d="M62.5456 26.3033C59.9361 26.3033 58.5408 24.2639 58.5408 22.4206C58.5408 20.2666 60.2963 18.4233 62.7913 18.4233C65.2027 18.4233 66.7126 20.3144 66.7126 22.3059C66.715 24.2472 65.2218 26.3033 62.5456 26.3033ZM64.5969 24.9716C64.9904 24.4456 65.0906 23.7858 65.0906 23.1451C65.0906 21.6962 64.4013 18.9325 62.3667 18.9325C61.8252 18.9325 61.2838 19.1477 60.8902 19.492C60.251 20.0681 60.1341 20.7901 60.1341 21.5002C60.1341 23.1283 60.9379 25.8084 62.9248 25.8084C63.5641 25.8084 64.22 25.4976 64.5969 24.9716Z" fill="#F9F9F9"/>
<path d="M53.651 26.3033C51.0416 26.3033 49.6462 24.2639 49.6462 22.4206C49.6462 20.2666 51.4018 18.4233 53.8967 18.4233C56.3082 18.4233 57.8181 20.3144 57.8181 22.3059C57.8181 24.2472 56.3249 26.3033 53.651 26.3033ZM55.7024 24.9716C56.0959 24.4456 56.1961 23.7858 56.1961 23.1451C56.1961 21.6962 55.5068 18.9325 53.4722 18.9325C52.9307 18.9325 52.3893 19.1477 51.9957 19.492C51.3565 20.0681 51.2396 20.7901 51.2396 21.5002C51.2396 23.1283 52.0434 25.8084 54.0303 25.8084C54.6672 25.8084 55.3231 25.4976 55.7024 24.9716Z" fill="#F9F9F9"/>
<path d="M48.3917 26.0458L46.0327 26.5909C45.0762 26.7391 44.2176 26.8706 43.3112 26.8706C38.7554 26.8706 37.0237 23.5139 37.0237 20.8841C37.0237 17.6757 39.4829 14.6992 43.6904 14.6992C44.5825 14.6992 45.4388 14.8307 46.214 15.0458C47.4519 15.3925 48.0292 15.8228 48.3917 16.0715L47.0226 17.3768L46.4454 17.5083L46.858 16.8461C46.2975 16.301 45.2742 15.2921 43.3279 15.2921C40.7208 15.2921 38.7577 17.2764 38.7577 20.1716C38.7577 23.2797 41.0023 26.2083 44.5992 26.2083C45.6558 26.2083 46.1997 25.9932 46.6958 25.7947V23.1362L44.2056 23.2677L45.5247 22.5552H49.0238L48.5945 22.9689C48.4776 23.0693 48.4633 23.1027 48.4299 23.2342C48.4132 23.3825 48.3965 23.863 48.3965 24.028V26.0458H48.3917Z" fill="#F9F9F9"/>
<path d="M78.1094 25.5693C77.5655 25.5191 77.4511 25.4211 77.4511 24.7756V24.5939V15.4133C77.4534 15.3774 77.4558 15.3416 77.4606 15.3057C77.5274 14.7271 77.692 14.6291 78.2048 14.3303H75.8434L74.6055 14.9256H75.8673V14.9328V14.9256V24.5891V25.1366C75.8673 25.4665 75.8029 25.5167 75.4212 26.0116H78.3431L78.9538 25.6482C78.6723 25.6171 78.3908 25.6028 78.1094 25.5693Z" fill="#F9F9F9"/>
<path d="M84.8238 25.7199C84.6449 25.8179 84.4636 25.9351 84.2847 26.0164C83.7433 26.2626 83.1851 26.3296 82.6938 26.3296C82.1714 26.3296 81.3509 26.2961 80.5137 25.6888C79.352 24.8664 78.844 23.4535 78.844 22.2222C78.844 19.6761 80.9096 18.4281 82.596 18.4281C83.1851 18.4281 83.7934 18.5763 84.2847 18.8871C85.1028 19.4274 85.3175 20.1351 85.4296 20.5128L81.5799 22.074L80.3181 22.172C80.7259 24.2568 82.1356 25.4713 83.6932 25.4713C84.528 25.4713 85.1362 25.1772 85.692 24.8975L84.8238 25.7199ZM83.2853 20.826C83.5954 20.7113 83.76 20.6132 83.76 20.3837C83.76 19.7263 83.0229 18.9708 82.138 18.9708C81.4821 18.9708 80.2537 19.48 80.2537 21.254C80.2537 21.5337 80.2871 21.8277 80.3038 22.1242L83.2853 20.826Z" fill="#F9F9F9"/>
<path d="M86.4077 18.5404V19.6235H86.2765V18.5404H85.9187V18.4281H86.7655V18.5404H86.4077Z" fill="#F9F9F9"/>
<path d="M87.8818 19.6235V18.5285H87.8746L87.5407 19.6235H87.4381L87.1018 18.5285H87.097V19.6235H86.9778V18.4281H87.1829L87.4858 19.3939H87.4906L87.7888 18.4281H87.9963V19.6235H87.8818Z" fill="#F9F9F9"/>
<path d="M40.2985 11.4791H39.478C39.478 11.3667 39.3993 11.0464 39.2442 10.518H38.0611C37.9013 11.0368 37.8202 11.3572 37.8202 11.4791H37.0498C37.0498 11.4122 37.2502 10.8647 37.6485 9.83425C38.0468 8.80622 38.2472 8.23961 38.2472 8.13441H39.2156C39.2156 8.23244 39.3969 8.78949 39.757 9.81034C40.1196 10.8312 40.2985 11.3883 40.2985 11.4791ZM39.1154 10.0303C38.8244 9.14571 38.6765 8.66995 38.6765 8.59822H38.636C38.636 8.66517 38.4857 9.14332 38.1828 10.0303H39.1154Z" fill="#F9F9FA"/>
<path d="M43.6043 11.4785H42.9722C42.9722 11.4092 42.7385 11.0386 42.2686 10.3668C41.7772 9.65912 41.4957 9.17618 41.429 8.91559H41.3884C41.4313 9.29094 41.4528 9.63043 41.4528 9.93166C41.4528 10.3548 41.4647 10.8688 41.4886 11.4785H40.8589C40.8851 10.9477 40.8971 10.3644 40.8971 9.72845C40.8971 9.10446 40.8851 8.57132 40.8589 8.1338H41.6198C41.6198 8.22465 41.8297 8.58566 42.2519 9.21922C42.7003 9.89102 42.9579 10.3477 43.0247 10.5891H43.0628C43.0223 10.2066 43.0008 9.86472 43.0008 9.5611C43.0008 9.09729 42.9889 8.62152 42.9651 8.1338H43.6067C43.5828 8.55936 43.5709 9.09011 43.5709 9.72845C43.5685 10.374 43.5804 10.9573 43.6043 11.4785Z" fill="#F9F9FA"/>
<path d="M47.3181 9.69253C47.3181 10.1779 47.1631 10.6034 46.8506 10.9668C46.5405 11.3302 46.104 11.5119 45.5435 11.5119C45.2907 11.5119 44.9424 11.5023 44.4988 11.4808C44.5202 10.9644 44.5322 10.3811 44.5322 9.73079C44.5322 9.10679 44.5202 8.57604 44.4988 8.13614H44.9472C45.0211 8.13614 45.1309 8.13375 45.2764 8.12897C45.4219 8.12419 45.5173 8.1218 45.5602 8.1218C46.1756 8.1218 46.624 8.27481 46.9007 8.58321C47.1774 8.89162 47.3181 9.2598 47.3181 9.69253ZM46.6169 9.80251C46.6169 9.47258 46.5215 9.19764 46.3306 8.97052C46.1398 8.74579 45.8464 8.63342 45.4553 8.63342C45.3813 8.63342 45.2811 8.64059 45.1523 8.65733C45.169 8.99921 45.1786 9.35783 45.1786 9.73079C45.1786 10.1396 45.1881 10.546 45.2048 10.9477C45.3169 10.9692 45.4266 10.9812 45.5387 10.9812C45.9061 10.9812 46.178 10.8664 46.3545 10.6393C46.5286 10.4098 46.6169 10.1324 46.6169 9.80251Z" fill="#F9F9FA"/>
<path d="M50.7411 11.4784H49.9826C49.7846 10.8712 49.632 10.4982 49.527 10.3572C49.4221 10.2161 49.2503 10.1444 49.0142 10.1444C48.914 10.1444 48.821 10.1444 48.7303 10.1468C48.7303 10.5867 48.7375 11.0314 48.7542 11.4808H48.041C48.0625 10.9644 48.0744 10.3811 48.0744 9.73078C48.0744 9.10679 48.0625 8.57604 48.041 8.13614H48.4847C48.5348 8.13614 48.6421 8.13375 48.8067 8.12897C48.9689 8.12419 49.1215 8.1218 49.2599 8.1218C50.0446 8.1218 50.4358 8.38956 50.4358 8.92749C50.4358 9.35304 50.2116 9.65189 49.7655 9.81924V9.85749C49.9373 9.90531 50.0899 10.0392 50.2187 10.2615C50.3452 10.4815 50.5217 10.8879 50.7411 11.4784ZM49.7799 9.11636C49.7799 8.77687 49.5604 8.60473 49.1239 8.60473C48.9641 8.60473 48.821 8.61668 48.6993 8.64059C48.7184 8.90597 48.728 9.25263 48.728 9.67819C48.821 9.68058 48.9021 9.68297 48.9665 9.68297C49.5079 9.68536 49.7799 9.4941 49.7799 9.11636Z" fill="#F9F9FA"/>
<path d="M54.4144 9.74479C54.4144 10.2708 54.2546 10.7059 53.9325 11.0525C53.6105 11.3992 53.2146 11.5713 52.7399 11.5713C52.2891 11.5713 51.9123 11.4135 51.6069 11.0956C51.304 10.7776 51.1514 10.3736 51.1514 9.88584C51.1514 9.35987 51.3112 8.92475 51.6332 8.57809C51.9552 8.23143 52.3511 8.0593 52.8258 8.0593C53.2766 8.0593 53.6535 8.21709 53.9588 8.53506C54.2617 8.85064 54.4144 9.25468 54.4144 9.74479ZM53.7083 9.82129C53.7083 9.46268 53.6177 9.17339 53.434 8.95105C53.2504 8.72871 53.0262 8.61635 52.7566 8.61635C52.5062 8.61635 52.2963 8.72871 52.1222 8.95344C51.948 9.17818 51.8598 9.46029 51.8598 9.80456C51.8598 10.1608 51.9504 10.4501 52.1341 10.6748C52.3177 10.8971 52.542 11.0095 52.8091 11.0095C53.0596 11.0095 53.2695 10.8971 53.4436 10.6724C53.6201 10.4429 53.7083 10.1608 53.7083 9.82129Z" fill="#F9F9FA"/>
<path d="M55.8621 11.4785H55.137C55.1584 10.9477 55.1704 10.3644 55.1704 9.72845C55.1704 9.10446 55.1584 8.57132 55.137 8.1338H55.8621C55.8406 8.56414 55.8287 9.09728 55.8287 9.72845C55.8287 10.3763 55.8406 10.9597 55.8621 11.4785Z" fill="#F9F9FA"/>
<path d="M59.5759 9.69253C59.5759 10.1779 59.4209 10.6034 59.1084 10.9668C58.7984 11.3302 58.3619 11.5119 57.8013 11.5119C57.5485 11.5119 57.2002 11.5023 56.7566 11.4808C56.7781 10.9644 56.79 10.3811 56.79 9.73079C56.79 9.10679 56.7781 8.57604 56.7566 8.13614H57.205C57.279 8.13614 57.3887 8.13375 57.5342 8.12897C57.6797 8.12419 57.7751 8.1218 57.818 8.1218C58.4334 8.1218 58.8818 8.27481 59.1585 8.58321C59.4376 8.89162 59.5759 9.2598 59.5759 9.69253ZM58.8771 9.80251C58.8771 9.47258 58.7817 9.19764 58.5908 8.97052C58.4 8.74579 58.1066 8.63342 57.7155 8.63342C57.6415 8.63342 57.5413 8.64059 57.4125 8.65733C57.4292 8.99921 57.4388 9.35783 57.4388 9.73079C57.4388 10.1396 57.4483 10.546 57.465 10.9477C57.5771 10.9692 57.6868 10.9812 57.7989 10.9812C58.1663 10.9812 58.4382 10.8664 58.6147 10.6393C58.7888 10.4098 58.8771 10.1324 58.8771 9.80251Z" fill="#F9F9FA"/>
<path d="M64.5038 11.4785H63.6833C63.6833 11.3661 63.6046 11.0458 63.4495 10.5174H62.2665C62.1067 11.0362 62.0256 11.3566 62.0256 11.4785H61.2551C61.2551 11.4116 61.4555 10.8641 61.8538 9.83364C62.2522 8.80561 62.4525 8.239 62.4525 8.1338H63.4209C63.4209 8.23183 63.6022 8.78888 63.9624 9.80974C64.3225 10.8306 64.5038 11.3876 64.5038 11.4785ZM63.3207 10.0297C63.0297 9.1451 62.8819 8.66934 62.8819 8.59761H62.8413C62.8413 8.66456 62.691 9.14271 62.3881 10.0297H63.3207Z" fill="#F9F9FA"/>
<path d="M67.4924 9.01114C67.4924 9.41997 67.3398 9.72359 67.0369 9.91725C66.7339 10.1133 66.3618 10.2089 65.9206 10.2089C65.8395 10.2089 65.7822 10.2065 65.7488 10.2041C65.7488 10.5269 65.7584 10.9501 65.7775 11.4784H65.0571C65.0786 10.9835 65.0905 10.4002 65.0905 9.72837C65.0905 9.11156 65.0786 8.5808 65.0571 8.13373H65.5032C65.5652 8.13373 65.6868 8.13134 65.8681 8.12656C66.047 8.12178 66.202 8.11938 66.3356 8.11938C66.66 8.11938 66.9343 8.1935 67.1585 8.33934C67.3803 8.48756 67.4924 8.7123 67.4924 9.01114ZM66.8317 9.1522C66.8317 8.78641 66.5884 8.60232 66.1042 8.60232C65.9826 8.60232 65.8538 8.61427 65.7202 8.64057C65.7393 8.96333 65.7488 9.33151 65.7488 9.74033C65.7918 9.74272 65.8419 9.74511 65.8967 9.74511C66.5193 9.74511 66.8317 9.54907 66.8317 9.1522Z" fill="#F9F9FA"/>
<path d="M70.5647 9.01114C70.5647 9.41997 70.412 9.72359 70.1091 9.91725C69.8062 10.1133 69.4341 10.2089 68.9928 10.2089C68.9117 10.2089 68.8545 10.2065 68.8211 10.2041C68.8211 10.5269 68.8306 10.9501 68.8497 11.4784H68.1294C68.1509 10.9835 68.1628 10.4002 68.1628 9.72837C68.1628 9.11156 68.1509 8.5808 68.1294 8.13373H68.5754C68.6374 8.13373 68.7591 8.13134 68.9404 8.12656C69.1193 8.12178 69.2743 8.11938 69.4079 8.11938C69.7323 8.11938 70.0066 8.1935 70.2308 8.33934C70.455 8.48756 70.5647 8.7123 70.5647 9.01114ZM69.904 9.1522C69.904 8.78641 69.6607 8.60232 69.1765 8.60232C69.0549 8.60232 68.9261 8.61427 68.7925 8.64057C68.8116 8.96333 68.8211 9.33151 68.8211 9.74033C68.864 9.74272 68.9141 9.74511 68.969 9.74511C69.5939 9.74511 69.904 9.54907 69.904 9.1522Z" fill="#F9F9FA"/>
<path d="M75.5904 9.74479C75.5904 10.2708 75.4306 10.7059 75.1086 11.0525C74.7866 11.3992 74.3906 11.5713 73.916 11.5713C73.4651 11.5713 73.0883 11.4135 72.783 11.0956C72.48 10.7776 72.3274 10.3736 72.3274 9.88584C72.3274 9.35987 72.4872 8.92475 72.8092 8.57809C73.1312 8.23143 73.5272 8.0593 74.0018 8.0593C74.4526 8.0593 74.8295 8.21709 75.1348 8.53506C75.4377 8.85064 75.5904 9.25468 75.5904 9.74479ZM74.882 9.82129C74.882 9.46268 74.7913 9.17339 74.6077 8.95105C74.424 8.72871 74.1998 8.61635 73.9303 8.61635C73.6798 8.61635 73.4699 8.72871 73.2958 8.95344C73.1217 9.17818 73.0334 9.46029 73.0334 9.80456C73.0334 10.1608 73.1241 10.4501 73.3101 10.6748C73.4938 10.8971 73.718 11.0095 73.9851 11.0095C74.2356 11.0095 74.4455 10.8971 74.6196 10.6724C74.7961 10.4429 74.882 10.1608 74.882 9.82129Z" fill="#F9F9FA"/>
<path d="M79.0633 11.4785H78.4312C78.4312 11.4092 78.1974 11.0386 77.7275 10.3668C77.2362 9.65912 76.9547 9.17618 76.8879 8.91559H76.8474C76.8903 9.29094 76.9118 9.63043 76.9118 9.93166C76.9118 10.3548 76.9237 10.8688 76.9476 11.4785H76.3179C76.3441 10.9477 76.356 10.3644 76.356 9.72845C76.356 9.10446 76.3441 8.57132 76.3179 8.1338H77.0788C77.0788 8.22465 77.2887 8.58566 77.7108 9.21922C78.1593 9.89102 78.4169 10.3477 78.4837 10.5891H78.5218C78.4813 10.2066 78.4598 9.86472 78.4598 9.5611C78.4598 9.09729 78.4479 8.62152 78.424 8.1338H79.0657C79.0418 8.55936 79.0299 9.09011 79.0299 9.72845C79.0275 10.374 79.0394 10.9573 79.0633 11.4785Z" fill="#F9F9FA"/>
<defs>
<linearGradient id="paint0_linear" x1="15.9647" y1="7.70225" x2="15.9647" y2="34.7903" gradientUnits="userSpaceOnUse">
<stop stop-color="#257CB0"/>
<stop offset="0.2863" stop-color="#4A93B5"/>
<stop offset="0.767" stop-color="#78BCBB"/>
<stop offset="1" stop-color="#89CFBD"/>
</linearGradient>
<linearGradient id="paint1_linear" x1="9.1508" y1="14.4238" x2="26.4389" y2="14.4238" gradientUnits="userSpaceOnUse">
<stop stop-color="#52C1AD"/>
<stop offset="1" stop-color="#DEE89A"/>
</linearGradient>
<linearGradient id="paint2_linear" x1="17.7947" y1="21.2452" x2="17.7947" y2="34.8875" gradientUnits="userSpaceOnUse">
<stop stop-color="#EC413D"/>
<stop offset="0.1668" stop-color="#DA4452"/>
<stop offset="0.5748" stop-color="#B0487A"/>
<stop offset="0.8619" stop-color="#954A92"/>
<stop offset="1" stop-color="#8A4A9D"/>
</linearGradient>
<linearGradient id="paint3_linear" x1="27.7519" y1="17.6072" x2="27.7519" y2="24.8827" gradientUnits="userSpaceOnUse">
<stop stop-color="#F58879"/>
<stop offset="0.1194" stop-color="#F69079"/>
<stop offset="0.7128" stop-color="#FCB877"/>
<stop offset="1" stop-color="#FEC874"/>
</linearGradient>
</defs>
</svg>
